<svg xmlns="http://www.w3.org/2000/svg" viewBox="0 0 64 64">
  <defs>
    <linearGradient id="bg" x1="10" y1="6" x2="54" y2="58" gradientUnits="userSpaceOnUse">
      <stop offset="0" stop-color="#8ab4ff" />
      <stop offset="0.55" stop-color="#7b8dff" />
      <stop offset="1" stop-color="#8ff3ff" />
    </linearGradient>
    <filter id="shadow" x="-20%" y="-20%" width="140%" height="140%">
      <feDropShadow dx="0" dy="6" stdDeviation="6" flood-color="#020617" flood-opacity="0.45" />
    </filter>
  </defs>

  <rect width="64" height="64" rx="18" fill="#050816" />
  <g filter="url(#shadow)">
    <rect x="8" y="8" width="48" height="48" rx="16" fill="url(#bg)" />
    <rect x="8.75" y="8.75" width="46.5" height="46.5" rx="15.25" fill="#ffffff" fill-opacity="0.08" stroke="#ffffff" stroke-opacity="0.18" stroke-width="1.5" />
    <path d="M16 18c7-4 20-4 30 1" fill="none" stroke="#fff" stroke-opacity="0.3" stroke-linecap="round" stroke-width="3" />
    <path d="M24 19h9.5c7.2 0 12.5 4.6 12.5 12 0 7.3-5.3 12-12.5 12H24z" fill="#081120" fill-opacity="0.3" />
    <path d="M26.5 22.5h6.4c6.2 0 9.8 3.1 9.8 8.5s-3.6 8.5-9.8 8.5h-6.4z" fill="#f8fbff" />
    <path d="M31 28.2c3.6 0 5.6 1.1 5.6 2.8 0 1.8-2 3-5.6 3h-1.2v-5.8z" fill="#7c90ff" />
    <circle cx="47" cy="47" r="6" fill="#081120" fill-opacity="0.18" />
    <path d="M43.8 47h6.4" stroke="#f8fbff" stroke-linecap="round" stroke-width="1.8" />
    <path d="M47 43.8v6.4" stroke="#f8fbff" stroke-linecap="round" stroke-width="1.8" />
  </g>
</svg>
